<svg width="50" height="50" viewBox="0 0 50 50" fill="none" xmlns="http://www.w3.org/2000/svg">
	<g clip-path="url(#clip0_92221_6409)">
		<path d="M18.6831 18.6733C20.1156 17.4295 21.8019 16.6653 23.5445 16.3669C21.9888 17.8962 21.0748 19.9611 20.9886 22.1409C20.9025 24.3206 21.6507 26.4512 23.0808 28.0985C24.5108 29.7458 26.5152 30.7859 28.6855 31.0068C30.8557 31.2277 33.0285 30.6128 34.7612 29.2874C34.2883 30.7554 33.4822 32.0942 32.4059 33.199C31.3297 34.3038 30.0125 35.1447 28.5573 35.6559C27.1021 36.1671 25.5484 36.3348 24.0177 36.1458C22.487 35.9569 21.0207 35.4164 19.7335 34.5666C18.4463 33.7169 17.3732 32.5809 16.5979 31.2476C15.8227 29.9142 15.3663 28.4196 15.2646 26.8806C15.1629 25.3416 15.4186 23.7999 16.0116 22.3761C16.6046 20.9524 17.519 19.685 18.6831 18.6733Z" stroke="currentColor" stroke-linecap="round" stroke-linejoin="round" />
	</g>
</svg>
